<svg xmlns="http://www.w3.org/2000/svg" xmlns:xlink="http://www.w3.org/1999/xlink" fill="none" version="1.1" width="636" height="628" viewBox="0 0 636 628"><defs><clipPath id="master_svg0_5_0"><rect x="0" y="0" width="636" height="628" rx="180"/></clipPath></defs><g clip-path="url(#master_svg0_5_0)"><rect x="0" y="0" width="636" height="628" rx="180" fill="#FFFFFF" fill-opacity="1"/><g><g></g><g><path d="M427.998583984375,89Q427.998583984375,88.631771,428.01658398437496,88.263985Q428.034583984375,87.8962,428.070583984375,87.52974Q428.106583984375,87.16329,428.16058398437497,86.79904Q428.214583984375,86.4348,428.286583984375,86.07365Q428.358583984375,85.71249,428.448583984375,85.3553Q428.53758398437503,84.9981,428.644583984375,84.64573Q428.751583984375,84.29336,428.875583984375,83.94665Q428.999583984375,83.59995,429.140583984375,83.25975Q429.281583984375,82.91955,429.438583984375,82.58667Q429.596583984375,82.2538,429.769583984375,81.92905Q429.943583984375,81.6043,430.132583984375,81.28846Q430.321583984375,80.97262,430.526583984375,80.66645Q430.730583984375,80.36028,430.950583984375,80.06451Q431.169583984375,79.76875,431.403583984375,79.4841Q431.63658398437497,79.19946,431.884583984375,78.92660000000001Q432.13158398437497,78.6538,432.39158398437496,78.3934Q432.65258398437504,78.133,432.925583984375,77.8857Q433.197583984375,77.6384,433.48258398437497,77.4048Q433.767583984375,77.1712,434.062583984375,76.9519Q434.358583984375,76.7325,434.664583984375,76.528Q434.971583984375,76.32339999999999,435.286583984375,76.1341Q435.602583984375,75.9448,435.927583984375,75.7712Q436.252583984375,75.5976,436.58558398437503,75.4402Q436.917583984375,75.2827,437.25858398437504,75.1418Q437.598583984375,75.0009,437.945583984375,74.8768Q438.291583984375,74.75280000000001,438.644583984375,74.6459Q438.996583984375,74.539,439.353583984375,74.4495Q439.71058398437503,74.3601,440.072583984375,74.2882Q440.433583984375,74.2164,440.797583984375,74.1624Q441.161583984375,74.1083,441.528583984375,74.0722Q441.894583984375,74.0361,442.262583984375,74.0181Q442.630583984375,74,442.998583984375,74Q443.366583984375,74,443.73458398437504,74.0181Q444.102583984375,74.0361,444.46858398437496,74.0722Q444.83558398437503,74.1083,445.199583984375,74.1624Q445.563583984375,74.2164,445.924583984375,74.2882Q446.28558398437497,74.3601,446.643583984375,74.4495Q447.000583984375,74.539,447.352583984375,74.6459Q447.70558398437504,74.75280000000001,448.051583984375,74.8768Q448.398583984375,75.0009,448.738583984375,75.1418Q449.078583984375,75.2827,449.411583984375,75.4402Q449.744583984375,75.5976,450.069583984375,75.7712Q450.394583984375,75.9448,450.709583984375,76.1341Q451.025583984375,76.32339999999999,451.331583984375,76.528Q451.638583984375,76.7325,451.933583984375,76.9519Q452.229583984375,77.1712,452.514583984375,77.4048Q452.798583984375,77.6384,453.071583984375,77.8857Q453.344583984375,78.133,453.605583984375,78.3934Q453.865583984375,78.6538,454.112583984375,78.92660000000001Q454.360583984375,79.19946,454.593583984375,79.4841Q454.827583984375,79.76875,455.046583984375,80.06451Q455.265583984375,80.36028,455.470583984375,80.66645Q455.675583984375,80.97262,455.864583984375,81.28846Q456.053583984375,81.6043,456.227583984375,81.92905Q456.400583984375,82.2538,456.558583984375,82.58667Q456.715583984375,82.91955,456.856583984375,83.25975Q456.997583984375,83.59995,457.121583984375,83.94665Q457.245583984375,84.29336,457.352583984375,84.64573Q457.459583984375,84.9981,457.548583984375,85.3553Q457.638583984375,85.71249,457.710583984375,86.07365Q457.782583984375,86.4348,457.836583984375,86.79904Q457.890583984375,87.16329,457.926583984375,87.52974Q457.962583984375,87.8962,457.980583984375,88.263985Q457.998583984375,88.631771,457.998583984375,89L457.998583984375,114.0447Q457.644583984375,232.596,354.430583984375,308.10400000000004Q353.972583984375,308.78200000000004,353.44458398437496,309.40700000000004Q352.91558398437496,310.03200000000004,352.322583984375,310.595Q351.728583984375,311.159,351.077583984375,311.654Q350.426583984375,312.15,349.725583984375,312.572L349.66558398437496,312.608L332.643583984375,322.847Q329.116583984375,325.058,325.490583984375,327.228L315.63158398437497,333.11699999999996Q208.065983984375,402.329,207.798583984375,514.35L207.798583984375,539.35Q207.798583984375,539.7180000000001,207.780483984375,540.086Q207.762483984375,540.454,207.726383984375,540.8199999999999Q207.69028398437501,541.187,207.636183984375,541.5509999999999Q207.582183984375,541.915,207.510383984375,542.2760000000001Q207.438483984375,542.637,207.349083984375,542.995Q207.259583984375,543.352,207.152683984375,543.704Q207.045783984375,544.057,206.921783984375,544.403Q206.797683984375,544.75,206.656783984375,545.0899999999999Q206.515883984375,545.4300000000001,206.358383984375,545.7629999999999Q206.200983984375,546.096,206.027383984375,546.421Q205.853783984375,546.746,205.664483984375,547.0609999999999Q205.475183984375,547.377,205.270583984375,547.684Q205.066083984375,547.99,204.846683984375,548.2850000000001Q204.627383984375,548.581,204.393783984375,548.866Q204.160183984375,549.1510000000001,203.91288398437501,549.423Q203.665583984375,549.696,203.40518398437501,549.957Q203.144783984375,550.217,202.871983984375,550.4639999999999Q202.599123984375,550.712,202.314483984375,550.9449999999999Q202.029833984375,551.179,201.734073984375,551.398Q201.438303984375,551.617,201.132133984375,551.822Q200.825963984375,552.027,200.510123984375,552.216Q200.194283984375,552.405,199.869533984375,552.579Q199.544783984375,552.752,199.211913984375,552.9100000000001Q198.879033984375,553.067,198.538833984375,553.2080000000001Q198.198633984375,553.3489999999999,197.851933984375,553.473Q197.505223984375,553.597,197.15285398437499,553.704Q196.800483984375,553.8109999999999,196.443283984375,553.9Q196.086093984375,553.99,195.724933984375,554.062Q195.363783984375,554.134,194.999543984375,554.188Q194.635293984375,554.242,194.268843984375,554.278Q193.902383984375,554.3140000000001,193.534598984375,554.332Q193.166812984375,554.35,192.798583984375,554.35Q192.430354984375,554.35,192.062568984375,554.332Q191.694783984375,554.3140000000001,191.328323984375,554.278Q190.961873984375,554.242,190.597623984375,554.188Q190.233383984375,554.134,189.872233984375,554.062Q189.511073984375,553.99,189.153883984375,553.9Q188.796683984375,553.8109999999999,188.44431398437501,553.704Q188.091943984375,553.597,187.745233984375,553.473Q187.398533984375,553.3489999999999,187.058333984375,553.2080000000001Q186.718133984375,553.067,186.385253984375,552.9100000000001Q186.052383984375,552.752,185.727633984375,552.579Q185.402883984375,552.405,185.087043984375,552.216Q184.771203984375,552.027,184.465033984375,551.822Q184.158863984375,551.617,183.863093984375,551.398Q183.567333984375,551.179,183.282683984375,550.9449999999999Q182.998043984375,550.712,182.725183984375,550.4639999999999Q182.452383984375,550.217,182.19198398437499,549.957Q181.931583984375,549.696,181.68428398437499,549.423Q181.436983984375,549.1510000000001,181.203383984375,548.866Q180.969783984375,548.581,180.750483984375,548.2850000000001Q180.531083984375,547.99,180.326583984375,547.684Q180.121983984375,547.377,179.932683984375,547.0609999999999Q179.743383984375,546.746,179.569783984375,546.421Q179.396183984375,546.096,179.238783984375,545.7629999999999Q179.081283984375,545.4300000000001,178.940383984375,545.0899999999999Q178.799483984375,544.75,178.675383984375,544.403Q178.551383984375,544.057,178.444483984375,543.704Q178.337583984375,543.352,178.248083984375,542.995Q178.158683984375,542.637,178.086783984375,542.2760000000001Q178.014983984375,541.915,177.960983984375,541.5509999999999Q177.90688398437499,541.187,177.870783984375,540.8199999999999Q177.834683984375,540.454,177.816683984375,540.086Q177.798583984375,539.7180000000001,177.798583984375,539.35L177.798583984375,514.35Q178.081683984375,395.707,281.448783984375,320.176Q281.903283984375,319.51599999999996,282.425583984375,318.908Q282.947783984375,318.3,283.531883984375,317.751Q284.115883984375,317.202,284.755083984375,316.719Q285.39428398437497,316.235,286.081383984375,315.822L286.111983984375,315.804L300.877583984375,306.937Q305.502583984375,303.995,310.300583984375,301.126L319.668583984375,295.55Q427.663583984375,226.284,427.998583984375,113.9552L427.998583984375,89Z" fill-rule="evenodd" fill="#000000" fill-opacity="1" style="mix-blend-mode:passthrough"/></g><g><path d="M177.798583984375,89Q177.798583984375,88.631771,177.816683984375,88.263985Q177.834683984375,87.8962,177.870783984375,87.52974Q177.90688398437499,87.16329,177.960983984375,86.79904Q178.014983984375,86.4348,178.086783984375,86.07365Q178.158683984375,85.71249,178.248083984375,85.3553Q178.337583984375,84.9981,178.444483984375,84.64573Q178.551383984375,84.29336,178.675383984375,83.94665Q178.799483984375,83.59995,178.940383984375,83.25975Q179.081283984375,82.91955,179.238783984375,82.58667Q179.396183984375,82.2538,179.569783984375,81.92905Q179.743383984375,81.6043,179.932683984375,81.28846Q180.121983984375,80.97262,180.326583984375,80.66645Q180.531083984375,80.36028,180.750483984375,80.06451Q180.969783984375,79.76875,181.203383984375,79.4841Q181.436983984375,79.19946,181.68428398437499,78.92660000000001Q181.931583984375,78.6538,182.19198398437499,78.3934Q182.452383984375,78.133,182.725183984375,77.8857Q182.998043984375,77.6384,183.282683984375,77.4048Q183.567333984375,77.1712,183.863093984375,76.9519Q184.158863984375,76.7325,184.465033984375,76.528Q184.771203984375,76.32339999999999,185.087043984375,76.1341Q185.402883984375,75.9448,185.727633984375,75.7712Q186.052383984375,75.5976,186.385253984375,75.4402Q186.718133984375,75.2827,187.058333984375,75.1418Q187.398533984375,75.0009,187.745233984375,74.8768Q188.091943984375,74.75280000000001,188.44431398437501,74.6459Q188.796683984375,74.539,189.153883984375,74.4495Q189.511073984375,74.3601,189.872233984375,74.2882Q190.233383984375,74.2164,190.597623984375,74.1624Q190.961873984375,74.1083,191.328323984375,74.0722Q191.694783984375,74.0361,192.062568984375,74.0181Q192.430354984375,74,192.798583984375,74Q193.166812984375,74,193.534598984375,74.0181Q193.902383984375,74.0361,194.268843984375,74.0722Q194.635293984375,74.1083,194.999543984375,74.1624Q195.363783984375,74.2164,195.724933984375,74.2882Q196.086093984375,74.3601,196.443283984375,74.4495Q196.800483984375,74.539,197.15285398437499,74.6459Q197.505223984375,74.75280000000001,197.851933984375,74.8768Q198.198633984375,75.0009,198.538833984375,75.1418Q198.879033984375,75.2827,199.211913984375,75.4402Q199.544783984375,75.5976,199.869533984375,75.7712Q200.194283984375,75.9448,200.510123984375,76.1341Q200.825963984375,76.32339999999999,201.132133984375,76.528Q201.438303984375,76.7325,201.734073984375,76.9519Q202.029833984375,77.1712,202.314483984375,77.4048Q202.599123984375,77.6384,202.871983984375,77.8857Q203.144783984375,78.133,203.40518398437501,78.3934Q203.665583984375,78.6538,203.91288398437501,78.92660000000001Q204.160183984375,79.19946,204.393783984375,79.4841Q204.627383984375,79.76875,204.846683984375,80.06451Q205.066083984375,80.36028,205.270583984375,80.66645Q205.475183984375,80.97262,205.664483984375,81.28846Q205.853783984375,81.6043,206.027383984375,81.92905Q206.200983984375,82.2538,206.358383984375,82.58667Q206.515883984375,82.91955,206.656783984375,83.25975Q206.797683984375,83.59995,206.921783984375,83.94665Q207.045783984375,84.29336,207.152683984375,84.64573Q207.259583984375,84.9981,207.349083984375,85.3553Q207.438483984375,85.71249,207.510383984375,86.07365Q207.582183984375,86.4348,207.636183984375,86.79904Q207.69028398437501,87.16329,207.726383984375,87.52974Q207.762483984375,87.8962,207.780483984375,88.263985Q207.798583984375,88.631771,207.798583984375,89L207.798583984375,114Q208.065983984375,226.02,315.697583984375,295.273L325.490583984375,301.122Q329.116583984375,303.29200000000003,332.643583984375,305.503L349.66558398437496,315.74199999999996L349.725583984375,315.778Q350.426583984375,316.2,351.077583984375,316.696Q351.728583984375,317.19100000000003,352.322583984375,317.755Q352.91558398437496,318.318,353.44458398437496,318.943Q353.972583984375,319.568,354.430583984375,320.246Q457.644583984375,395.754,457.998583984375,514.3050000000001L457.998583984375,539.35Q457.998583984375,539.7180000000001,457.980583984375,540.086Q457.962583984375,540.454,457.926583984375,540.8199999999999Q457.890583984375,541.187,457.836583984375,541.5509999999999Q457.782583984375,541.915,457.710583984375,542.2760000000001Q457.638583984375,542.637,457.548583984375,542.995Q457.459583984375,543.352,457.352583984375,543.704Q457.245583984375,544.057,457.121583984375,544.403Q456.997583984375,544.75,456.856583984375,545.0899999999999Q456.715583984375,545.4300000000001,456.558583984375,545.7629999999999Q456.400583984375,546.096,456.227583984375,546.421Q456.053583984375,546.746,455.864583984375,547.0609999999999Q455.675583984375,547.377,455.470583984375,547.684Q455.265583984375,547.99,455.046583984375,548.2850000000001Q454.827583984375,548.581,454.593583984375,548.866Q454.360583984375,549.1510000000001,454.112583984375,549.423Q453.865583984375,549.696,453.605583984375,549.957Q453.344583984375,550.217,453.071583984375,550.4639999999999Q452.799583984375,550.712,452.514583984375,550.9449999999999Q452.229583984375,551.179,451.933583984375,551.398Q451.638583984375,551.617,451.332583984375,551.822Q451.025583984375,552.027,450.709583984375,552.216Q450.394583984375,552.405,450.069583984375,552.579Q449.744583984375,552.752,449.411583984375,552.9100000000001Q449.078583984375,553.067,448.738583984375,553.2080000000001Q448.398583984375,553.3489999999999,448.051583984375,553.473Q447.70558398437504,553.597,447.352583984375,553.704Q447.000583984375,553.8109999999999,446.643583984375,553.9Q446.28558398437497,553.99,445.924583984375,554.062Q445.563583984375,554.134,445.199583984375,554.188Q444.83558398437503,554.242,444.46858398437496,554.278Q444.102583984375,554.3140000000001,443.73458398437504,554.332Q443.366583984375,554.35,442.998583984375,554.35Q442.630583984375,554.35,442.262583984375,554.332Q441.894583984375,554.3140000000001,441.528583984375,554.278Q441.161583984375,554.242,440.797583984375,554.188Q440.433583984375,554.134,440.072583984375,554.062Q439.71058398437503,553.99,439.353583984375,553.9Q438.996583984375,553.8109999999999,438.644583984375,553.704Q438.291583984375,553.597,437.945583984375,553.473Q437.598583984375,553.3489999999999,437.25858398437504,553.2080000000001Q436.917583984375,553.067,436.58558398437503,552.9100000000001Q436.252583984375,552.752,435.927583984375,552.579Q435.602583984375,552.405,435.286583984375,552.216Q434.971583984375,552.027,434.664583984375,551.822Q434.358583984375,551.617,434.062583984375,551.398Q433.767583984375,551.179,433.48258398437497,550.9449999999999Q433.197583984375,550.712,432.925583984375,550.4639999999999Q432.65258398437504,550.217,432.39158398437496,549.957Q432.13158398437497,549.696,431.884583984375,549.423Q431.63658398437497,549.1510000000001,431.403583984375,548.866Q431.169583984375,548.581,430.950583984375,548.2850000000001Q430.730583984375,547.99,430.526583984375,547.684Q430.321583984375,547.377,430.132583984375,547.0609999999999Q429.943583984375,546.746,429.769583984375,546.421Q429.596583984375,546.096,429.438583984375,545.7629999999999Q429.281583984375,545.4300000000001,429.140583984375,545.0899999999999Q428.999583984375,544.75,428.875583984375,544.403Q428.751583984375,544.057,428.644583984375,543.704Q428.53758398437503,543.352,428.447583984375,542.995Q428.358583984375,542.637,428.286583984375,542.2760000000001Q428.214583984375,541.915,428.16058398437497,541.5509999999999Q428.106583984375,541.187,428.070583984375,540.8199999999999Q428.034583984375,540.454,428.01658398437496,540.086Q427.998583984375,539.7180000000001,427.998583984375,539.35L427.998583984375,514.395Q427.663583984375,402.066,319.668583984375,332.8L310.297583984375,327.222Q305.539583984375,324.376,300.952583984375,321.45799999999997L286.111983984375,312.546L286.081383984375,312.527Q285.392283984375,312.11400000000003,284.751283984375,311.629Q284.110383984375,311.14300000000003,283.524883984375,310.59299999999996Q282.939483984375,310.04200000000003,282.416183984375,309.43100000000004Q281.892983984375,308.821,281.437983984375,308.158Q178.081583984375,232.603,177.798583984375,114L177.798583984375,89Z" fill-rule="evenodd" fill="#000000" fill-opacity="1" style="mix-blend-mode:passthrough"/></g><g><path d="M193,99L443,99Q443.368,99,443.736,99.0181Q444.10400000000004,99.0361,444.47,99.0722Q444.837,99.1083,445.201,99.1624Q445.565,99.2164,445.926,99.2882Q446.28700000000003,99.3601,446.645,99.4495Q447.002,99.539,447.35400000000004,99.6459Q447.707,99.75280000000001,448.053,99.8768Q448.4,100.0009,448.74,100.1418Q449.08,100.2827,449.413,100.4402Q449.746,100.5976,450.071,100.7712Q450.396,100.9448,450.712,101.1341Q451.027,101.32339999999999,451.334,101.528Q451.64,101.7325,451.935,101.9519Q452.231,102.1712,452.516,102.4048Q452.801,102.6384,453.073,102.8857Q453.346,103.133,453.607,103.3934Q453.867,103.6538,454.114,103.92660000000001Q454.362,104.19946,454.595,104.4841Q454.829,104.76875,455.048,105.06451Q455.267,105.36028,455.472,105.66645Q455.677,105.97262,455.866,106.28846Q456.055,106.6043,456.229,106.92905Q456.402,107.2538,456.56,107.58667Q456.717,107.91955,456.858,108.25975Q456.999,108.59995,457.123,108.94665Q457.247,109.29336,457.354,109.64573Q457.461,109.9981,457.55,110.3553Q457.64,110.71249,457.712,111.07365Q457.784,111.4348,457.838,111.79904Q457.892,112.16329,457.928,112.52974Q457.964,112.8962,457.982,113.263985Q458,113.631771,458,114Q458,114.368229,457.982,114.736015Q457.964,115.1038,457.928,115.47026Q457.892,115.83671,457.838,116.20096Q457.784,116.5652,457.712,116.92635Q457.64,117.28751,457.55,117.6447Q457.461,118.0019,457.354,118.35427Q457.247,118.70664,457.123,119.05335Q456.999,119.40005,456.858,119.74025Q456.717,120.08045,456.56,120.41333Q456.402,120.7462,456.229,121.07095Q456.055,121.3957,455.866,121.71154Q455.677,122.02738,455.472,122.33355Q455.267,122.63972,455.048,122.93549Q454.829,123.23125,454.595,123.5159Q454.362,123.80054,454.114,124.07339999999999Q453.867,124.3462,453.607,124.6066Q453.346,124.867,453.073,125.1143Q452.801,125.3616,452.516,125.5952Q452.231,125.8288,451.935,126.0481Q451.64,126.2675,451.334,126.472Q451.027,126.67660000000001,450.712,126.8659Q450.396,127.0552,450.071,127.2288Q449.746,127.4024,449.413,127.5598Q449.08,127.7173,448.74,127.8582Q448.4,127.9991,448.053,128.1232Q447.707,128.2472,447.35400000000004,128.3541Q447.002,128.461,446.645,128.5505Q446.28700000000003,128.6399,445.926,128.7118Q445.565,128.7836,445.201,128.8376Q444.837,128.89170000000001,444.47,128.9278Q444.10400000000004,128.9639,443.736,128.9819Q443.368,129,443,129L193,129Q192.631771,129,192.263985,128.9819Q191.8962,128.9639,191.52974,128.9278Q191.16329,128.89170000000001,190.79904,128.8376Q190.4348,128.7836,190.07365,128.7118Q189.71249,128.6399,189.3553,128.5505Q188.9981,128.461,188.64573000000001,128.3541Q188.29336,128.2472,187.94665,128.1232Q187.59995,127.9991,187.25975,127.8582Q186.91955,127.7173,186.58667,127.5598Q186.2538,127.4024,185.92905,127.2288Q185.6043,127.0552,185.28846,126.8659Q184.97262,126.67660000000001,184.66645,126.472Q184.36028,126.2675,184.06451,126.0481Q183.76875,125.8288,183.4841,125.5952Q183.19946,125.3616,182.9266,125.1143Q182.6538,124.867,182.39339999999999,124.6066Q182.133,124.3462,181.88569999999999,124.07339999999999Q181.6384,123.80054,181.4048,123.5159Q181.1712,123.23125,180.9519,122.93549Q180.7325,122.63972,180.528,122.33355Q180.3234,122.02738,180.1341,121.71154Q179.9448,121.3957,179.7712,121.07095Q179.5976,120.7462,179.4402,120.41333Q179.2827,120.08045,179.1418,119.74025Q179.0009,119.40005,178.8768,119.05335Q178.7528,118.70664,178.6459,118.35427Q178.539,118.0019,178.4495,117.6447Q178.3601,117.28751,178.2882,116.92635Q178.2164,116.5652,178.1624,116.20096Q178.10829999999999,115.83671,178.0722,115.47026Q178.0361,115.1038,178.0181,114.736015Q178,114.368229,178,114Q178,113.631771,178.0181,113.263985Q178.0361,112.8962,178.0722,112.52974Q178.10829999999999,112.16329,178.1624,111.79904Q178.2164,111.4348,178.2882,111.07365Q178.3601,110.71249,178.4495,110.3553Q178.539,109.9981,178.6459,109.64573Q178.7528,109.29336,178.8768,108.94665Q179.0009,108.59995,179.1418,108.25975Q179.2827,107.91955,179.4402,107.58667Q179.5976,107.2538,179.7712,106.92905Q179.9448,106.6043,180.1341,106.28846Q180.3234,105.97262,180.528,105.66645Q180.7325,105.36028,180.9519,105.06451Q181.1712,104.76875,181.4048,104.4841Q181.6384,104.19946,181.88569999999999,103.92660000000001Q182.133,103.6538,182.39339999999999,103.3934Q182.6538,103.133,182.9266,102.8857Q183.19946,102.6384,183.4841,102.4048Q183.76875,102.1712,184.06451,101.9519Q184.36028,101.7325,184.66645,101.528Q184.97262,101.32339999999999,185.28846,101.1341Q185.6043,100.9448,185.92905,100.7712Q186.2538,100.5976,186.58667,100.4402Q186.91955,100.2827,187.25975,100.1418Q187.59995,100.0009,187.94665,99.8768Q188.29336,99.75280000000001,188.64573000000001,99.6459Q188.9981,99.539,189.3553,99.4495Q189.71249,99.3601,190.07365,99.2882Q190.4348,99.2164,190.79904,99.1624Q191.16329,99.1083,191.52974,99.0722Q191.8962,99.0361,192.263985,99.0181Q192.631771,99,193,99Z" fill-rule="evenodd" fill="#000000" fill-opacity="1" style="mix-blend-mode:passthrough"/></g><g><path d="M193,498.9998779296875L443,498.9998779296875Q443.368,498.9998779296875,443.736,499.0179779296875Q444.10400000000004,499.0359779296875,444.47,499.0720779296875Q444.837,499.1081779296875,445.201,499.1622779296875Q445.565,499.2162779296875,445.926,499.2880779296875Q446.28700000000003,499.3599779296875,446.645,499.4493779296875Q447.002,499.5388779296875,447.35400000000004,499.6457779296875Q447.707,499.7526779296875,448.053,499.8766779296875Q448.4,500.0007779296875,448.74,500.1416779296875Q449.08,500.2825779296875,449.413,500.4400779296875Q449.746,500.5974779296875,450.071,500.7710779296875Q450.396,500.9446779296875,450.712,501.1339779296875Q451.027,501.3232779296875,451.334,501.5278779296875Q451.64,501.7323779296875,451.935,501.9517779296875Q452.231,502.1710779296875,452.516,502.4046779296875Q452.801,502.6382779296875,453.073,502.8855779296875Q453.346,503.1328779296875,453.607,503.3932779296875Q453.867,503.6536779296875,454.114,503.9264779296875Q454.362,504.1993379296875,454.595,504.4839779296875Q454.829,504.7686279296875,455.048,505.0643879296875Q455.267,505.3601579296875,455.472,505.6663279296875Q455.677,505.9724979296875,455.866,506.2883379296875Q456.055,506.6041779296875,456.229,506.9289279296875Q456.402,507.2536779296875,456.56,507.5865479296875Q456.717,507.9194279296875,456.858,508.2596279296875Q456.999,508.5998279296875,457.123,508.9465279296875Q457.247,509.2932379296875,457.354,509.6456079296875Q457.461,509.9979779296875,457.55,510.3551779296875Q457.64,510.7123679296875,457.712,511.0735279296875Q457.784,511.4346779296875,457.838,511.7989179296875Q457.892,512.1631679296875,457.928,512.5296179296874Q457.964,512.8960779296875,457.982,513.2638629296875Q458,513.6316489296875,458,513.9998779296875Q458,514.3681069296875,457.982,514.7358929296875Q457.964,515.1036779296875,457.928,515.4701379296876Q457.892,515.8365879296875,457.838,516.2008379296875Q457.784,516.5650779296875,457.712,516.9262279296875Q457.64,517.2873879296875,457.55,517.6445779296874Q457.461,518.0017779296875,457.354,518.3541479296875Q457.247,518.7065179296875,457.123,519.0532279296875Q456.999,519.3999279296875,456.858,519.7401279296874Q456.717,520.0803279296875,456.56,520.4132079296875Q456.402,520.7460779296875,456.229,521.0708279296875Q456.055,521.3955779296875,455.866,521.7114179296875Q455.677,522.0272579296875,455.472,522.3334279296874Q455.267,522.6395979296875,455.048,522.9353679296875Q454.829,523.2311279296875,454.595,523.5157779296875Q454.362,523.8004179296875,454.114,524.0732779296875Q453.867,524.3460779296875,453.607,524.6064779296875Q453.346,524.8668779296875,453.073,525.1141779296875Q452.801,525.3614779296875,452.516,525.5950779296875Q452.231,525.8286779296875,451.935,526.0479779296875Q451.64,526.2673779296875,451.334,526.4718779296875Q451.027,526.6764779296875,450.712,526.8657779296875Q450.396,527.0550779296875,450.071,527.2286779296875Q449.746,527.4022779296874,449.413,527.5596779296875Q449.08,527.7171779296875,448.74,527.8580779296875Q448.4,527.9989779296875,448.053,528.1230779296875Q447.707,528.2470779296875,447.35400000000004,528.3539779296875Q447.002,528.4608779296875,446.645,528.5503779296876Q446.28700000000003,528.6397779296875,445.926,528.7116779296875Q445.565,528.7834779296875,445.201,528.8374779296875Q444.837,528.8915779296875,444.47,528.9276779296875Q444.10400000000004,528.9637779296875,443.736,528.9817779296875Q443.368,528.9998779296875,443,528.9998779296875L193,528.9998779296875Q192.631771,528.9998779296875,192.263985,528.9817779296875Q191.8962,528.9637779296875,191.52974,528.9276779296875Q191.16329,528.8915779296875,190.79904,528.8374779296875Q190.4348,528.7834779296875,190.07365,528.7116779296875Q189.71249,528.6397779296875,189.3553,528.5503779296876Q188.9981,528.4608779296875,188.64573000000001,528.3539779296875Q188.29336,528.2470779296875,187.94665,528.1230779296875Q187.59995,527.9989779296875,187.25975,527.8580779296875Q186.91955,527.7171779296875,186.58667,527.5596779296875Q186.2538,527.4022779296874,185.92905,527.2286779296875Q185.6043,527.0550779296875,185.28846,526.8657779296875Q184.97262,526.6764779296875,184.66645,526.4718779296875Q184.36028,526.2673779296875,184.06451,526.0479779296875Q183.76875,525.8286779296875,183.4841,525.5950779296875Q183.19946,525.3614779296875,182.9266,525.1141779296875Q182.6538,524.8668779296875,182.39339999999999,524.6064779296875Q182.133,524.3460779296875,181.88569999999999,524.0732779296875Q181.6384,523.8004179296875,181.4048,523.5157779296875Q181.1712,523.2311279296875,180.9519,522.9353679296875Q180.7325,522.6395979296875,180.528,522.3334279296874Q180.3234,522.0272579296875,180.1341,521.7114179296875Q179.9448,521.3955779296875,179.7712,521.0708279296875Q179.5976,520.7460779296875,179.4402,520.4132079296875Q179.2827,520.0803279296875,179.1418,519.7401279296874Q179.0009,519.3999279296875,178.8768,519.0532279296875Q178.7528,518.7065179296875,178.6459,518.3541479296875Q178.539,518.0017779296875,178.4495,517.6445779296874Q178.3601,517.2873879296875,178.2882,516.9262279296875Q178.2164,516.5650779296875,178.1624,516.2008379296875Q178.10829999999999,515.8365879296875,178.0722,515.4701379296876Q178.0361,515.1036779296875,178.0181,514.7358929296875Q178,514.3681069296875,178,513.9998779296875Q178,513.6316489296875,178.0181,513.2638629296875Q178.0361,512.8960779296875,178.0722,512.5296179296874Q178.10829999999999,512.1631679296875,178.1624,511.7989179296875Q178.2164,511.4346779296875,178.2882,511.0735279296875Q178.3601,510.7123679296875,178.4495,510.3551779296875Q178.539,509.9979779296875,178.6459,509.6456079296875Q178.7528,509.2932379296875,178.8768,508.9465279296875Q179.0009,508.5998279296875,179.1418,508.2596279296875Q179.2827,507.9194279296875,179.4402,507.5865479296875Q179.5976,507.2536779296875,179.7712,506.9289279296875Q179.9448,506.6041779296875,180.1341,506.2883379296875Q180.3234,505.9724979296875,180.528,505.6663279296875Q180.7325,505.3601579296875,180.9519,505.0643879296875Q181.1712,504.7686279296875,181.4048,504.4839779296875Q181.6384,504.1993379296875,181.88569999999999,503.9264779296875Q182.133,503.6536779296875,182.39339999999999,503.3932779296875Q182.6538,503.1328779296875,182.9266,502.8855779296875Q183.19946,502.6382779296875,183.4841,502.4046779296875Q183.76875,502.1710779296875,184.06451,501.9517779296875Q184.36028,501.7323779296875,184.66645,501.5278779296875Q184.97262,501.3232779296875,185.28846,501.1339779296875Q185.6043,500.9446779296875,185.92905,500.7710779296875Q186.2538,500.5974779296875,186.58667,500.4400779296875Q186.91955,500.2825779296875,187.25975,500.1416779296875Q187.59995,500.0007779296875,187.94665,499.8766779296875Q188.29336,499.7526779296875,188.64573000000001,499.6457779296875Q188.9981,499.5388779296875,189.3553,499.4493779296875Q189.71249,499.3599779296875,190.07365,499.2880779296875Q190.4348,499.2162779296875,190.79904,499.1622779296875Q191.16329,499.1081779296875,191.52974,499.0720779296875Q191.8962,499.0359779296875,192.263985,499.0179779296875Q192.631771,498.9998779296875,193,498.9998779296875Z" fill-rule="evenodd" fill="#000000" fill-opacity="1" style="mix-blend-mode:passthrough"/></g><g><path d="M218,199L418,199Q418.368,199,418.736,199.0181Q419.10400000000004,199.0361,419.47,199.0722Q419.837,199.10829999999999,420.201,199.1624Q420.565,199.2164,420.926,199.2882Q421.28700000000003,199.3601,421.645,199.4495Q422.002,199.539,422.35400000000004,199.6459Q422.707,199.7528,423.053,199.8768Q423.4,200.0009,423.74,200.1418Q424.08000000000004,200.2827,424.413,200.4402Q424.746,200.5976,425.071,200.7712Q425.39599999999996,200.9448,425.711,201.1341Q426.027,201.3234,426.33299999999997,201.528Q426.64,201.7325,426.935,201.9519Q427.231,202.1712,427.51599999999996,202.4048Q427.801,202.6384,428.073,202.88569999999999Q428.346,203.133,428.60699999999997,203.39339999999999Q428.86699999999996,203.6538,429.11400000000003,203.9266Q429.36199999999997,204.19946,429.595,204.4841Q429.829,204.76875,430.048,205.06451Q430.267,205.36028,430.472,205.66645Q430.677,205.97262,430.866,206.28846Q431.055,206.6043,431.22900000000004,206.92905Q431.402,207.2538,431.56,207.58667Q431.717,207.91955,431.858,208.25975Q431.999,208.59995,432.123,208.94665Q432.247,209.29336,432.35400000000004,209.64573000000001Q432.461,209.9981,432.55,210.3553Q432.64,210.71249,432.712,211.07365Q432.784,211.4348,432.83799999999997,211.79904Q432.892,212.16329,432.928,212.52974Q432.964,212.8962,432.98199999999997,213.263985Q433,213.631771,433,214Q433,214.368229,432.98199999999997,214.736015Q432.964,215.1038,432.928,215.47026Q432.892,215.83671,432.83799999999997,216.20096Q432.784,216.5652,432.712,216.92635Q432.64,217.28751,432.55,217.6447Q432.461,218.0019,432.35400000000004,218.35426999999999Q432.247,218.70664,432.123,219.05335Q431.999,219.40005,431.858,219.74025Q431.717,220.08045,431.56,220.41333Q431.402,220.7462,431.22900000000004,221.07095Q431.055,221.3957,430.866,221.71154Q430.677,222.02738,430.472,222.33355Q430.267,222.63972,430.048,222.93549Q429.829,223.23125,429.595,223.5159Q429.36199999999997,223.80054,429.11400000000003,224.0734Q428.86699999999996,224.3462,428.60699999999997,224.60660000000001Q428.346,224.867,428.073,225.11430000000001Q427.801,225.3616,427.51599999999996,225.5952Q427.231,225.8288,426.935,226.0481Q426.64,226.2675,426.33299999999997,226.472Q426.027,226.6766,425.711,226.8659Q425.39599999999996,227.0552,425.071,227.2288Q424.746,227.4024,424.413,227.5598Q424.08000000000004,227.7173,423.74,227.8582Q423.4,227.9991,423.053,228.1232Q422.707,228.2472,422.35400000000004,228.3541Q422.002,228.461,421.645,228.5505Q421.28700000000003,228.6399,420.926,228.7118Q420.565,228.7836,420.201,228.8376Q419.837,228.89170000000001,419.47,228.9278Q419.10400000000004,228.9639,418.736,228.9819Q418.368,229,418,229L218,229Q217.631771,229,217.263985,228.9819Q216.8962,228.9639,216.52974,228.9278Q216.16329,228.89170000000001,215.79904,228.8376Q215.4348,228.7836,215.07365,228.7118Q214.71249,228.6399,214.3553,228.5505Q213.9981,228.461,213.64573000000001,228.3541Q213.29336,228.2472,212.94665,228.1232Q212.59995,227.9991,212.25975,227.8582Q211.91955,227.7173,211.58667,227.5598Q211.2538,227.4024,210.92905,227.2288Q210.6043,227.0552,210.28846,226.8659Q209.97262,226.6766,209.66645,226.472Q209.36028,226.2675,209.06451,226.0481Q208.76875,225.8288,208.4841,225.5952Q208.19946,225.3616,207.9266,225.11430000000001Q207.6538,224.867,207.39339999999999,224.60660000000001Q207.133,224.3462,206.88569999999999,224.0734Q206.6384,223.80054,206.4048,223.5159Q206.1712,223.23125,205.9519,222.93549Q205.7325,222.63972,205.528,222.33355Q205.3234,222.02738,205.1341,221.71154Q204.9448,221.3957,204.7712,221.07095Q204.5976,220.7462,204.4402,220.41333Q204.2827,220.08045,204.1418,219.74025Q204.0009,219.40005,203.8768,219.05335Q203.7528,218.70664,203.6459,218.35426999999999Q203.539,218.0019,203.4495,217.6447Q203.3601,217.28751,203.2882,216.92635Q203.2164,216.5652,203.1624,216.20096Q203.10829999999999,215.83671,203.0722,215.47026Q203.0361,215.1038,203.0181,214.736015Q203,214.368229,203,214Q203,213.631771,203.0181,213.263985Q203.0361,212.8962,203.0722,212.52974Q203.10829999999999,212.16329,203.1624,211.79904Q203.2164,211.4348,203.2882,211.07365Q203.3601,210.71249,203.4495,210.3553Q203.539,209.9981,203.6459,209.64573000000001Q203.7528,209.29336,203.8768,208.94665Q204.0009,208.59995,204.1418,208.25975Q204.2827,207.91955,204.4402,207.58667Q204.5976,207.2538,204.7712,206.92905Q204.9448,206.6043,205.1341,206.28846Q205.3234,205.97262,205.528,205.66645Q205.7325,205.36028,205.9519,205.06451Q206.1712,204.76875,206.4048,204.4841Q206.6384,204.19946,206.88569999999999,203.9266Q207.133,203.6538,207.39339999999999,203.39339999999999Q207.6538,203.133,207.9266,202.88569999999999Q208.19946,202.6384,208.4841,202.4048Q208.76875,202.1712,209.06451,201.9519Q209.36028,201.7325,209.66645,201.528Q209.97262,201.3234,210.28846,201.1341Q210.6043,200.9448,210.92905,200.7712Q211.2538,200.5976,211.58667,200.4402Q211.91955,200.2827,212.25975,200.1418Q212.59995,200.0009,212.94665,199.8768Q213.29336,199.7528,213.64573000000001,199.6459Q213.9981,199.539,214.3553,199.4495Q214.71249,199.3601,215.07365,199.2882Q215.4348,199.2164,215.79904,199.1624Q216.16329,199.10829999999999,216.52974,199.0722Q216.8962,199.0361,217.263985,199.0181Q217.631771,199,218,199Z" fill-rule="evenodd" fill="#000000" fill-opacity="1" style="mix-blend-mode:passthrough"/></g><g><path d="M218,399L418,399Q418.368,399,418.736,399.0181Q419.10400000000004,399.0361,419.47,399.0722Q419.837,399.1083,420.201,399.1624Q420.565,399.2164,420.926,399.2882Q421.28700000000003,399.3601,421.645,399.4495Q422.002,399.539,422.35400000000004,399.6459Q422.707,399.7528,423.053,399.8768Q423.4,400.0009,423.74,400.1418Q424.08000000000004,400.2827,424.413,400.4402Q424.746,400.5976,425.071,400.7712Q425.39599999999996,400.9448,425.711,401.1341Q426.027,401.3234,426.33299999999997,401.528Q426.64,401.7325,426.935,401.9519Q427.231,402.1712,427.51599999999996,402.4048Q427.801,402.6384,428.073,402.8857Q428.346,403.133,428.60699999999997,403.3934Q428.86699999999996,403.6538,429.11400000000003,403.9266Q429.36199999999997,404.19946,429.595,404.4841Q429.829,404.76875,430.048,405.06451Q430.267,405.36028,430.472,405.66645Q430.677,405.97262,430.866,406.28846Q431.055,406.6043,431.22900000000004,406.92905Q431.402,407.2538,431.56,407.58667Q431.717,407.91955,431.858,408.25975Q431.999,408.59995,432.123,408.94665Q432.247,409.29336,432.35400000000004,409.64573Q432.461,409.9981,432.55,410.3553Q432.64,410.71249,432.712,411.07365Q432.784,411.4348,432.83799999999997,411.79904Q432.892,412.16329,432.928,412.52974Q432.964,412.8962,432.98199999999997,413.263985Q433,413.631771,433,414Q433,414.368229,432.98199999999997,414.736015Q432.964,415.1038,432.928,415.47026Q432.892,415.83671,432.83799999999997,416.20096Q432.784,416.5652,432.712,416.92635Q432.64,417.28751,432.55,417.6447Q432.461,418.0019,432.35400000000004,418.35427Q432.247,418.70664,432.123,419.05335Q431.999,419.40005,431.858,419.74025Q431.717,420.08045,431.56,420.41333Q431.402,420.7462,431.22900000000004,421.07095Q431.055,421.3957,430.866,421.71154Q430.677,422.02738,430.472,422.33355Q430.267,422.63972,430.048,422.93549Q429.829,423.23125,429.595,423.5159Q429.36199999999997,423.80054,429.11400000000003,424.0734Q428.86699999999996,424.3462,428.60699999999997,424.6066Q428.346,424.867,428.073,425.1143Q427.801,425.3616,427.51599999999996,425.5952Q427.231,425.8288,426.935,426.0481Q426.64,426.2675,426.33299999999997,426.472Q426.027,426.6766,425.711,426.8659Q425.39599999999996,427.0552,425.071,427.2288Q424.746,427.4024,424.413,427.5598Q424.08000000000004,427.7173,423.74,427.8582Q423.4,427.9991,423.053,428.1232Q422.707,428.2472,422.35400000000004,428.3541Q422.002,428.461,421.645,428.5505Q421.28700000000003,428.6399,420.926,428.7118Q420.565,428.7836,420.201,428.8376Q419.837,428.8917,419.47,428.9278Q419.10400000000004,428.9639,418.736,428.9819Q418.368,429,418,429L218,429Q217.631771,429,217.263985,428.9819Q216.8962,428.9639,216.52974,428.9278Q216.16329,428.8917,215.79904,428.8376Q215.4348,428.7836,215.07365,428.7118Q214.71249,428.6399,214.3553,428.5505Q213.9981,428.461,213.64573000000001,428.3541Q213.29336,428.2472,212.94665,428.1232Q212.59995,427.9991,212.25975,427.8582Q211.91955,427.7173,211.58667,427.5598Q211.2538,427.4024,210.92905,427.2288Q210.6043,427.0552,210.28846,426.8659Q209.97262,426.6766,209.66645,426.472Q209.36028,426.2675,209.06451,426.0481Q208.76875,425.8288,208.4841,425.5952Q208.19946,425.3616,207.9266,425.1143Q207.6538,424.867,207.39339999999999,424.6066Q207.133,424.3462,206.88569999999999,424.0734Q206.6384,423.80054,206.4048,423.5159Q206.1712,423.23125,205.9519,422.93549Q205.7325,422.63972,205.528,422.33355Q205.3234,422.02738,205.1341,421.71154Q204.9448,421.3957,204.7712,421.07095Q204.5976,420.7462,204.4402,420.41333Q204.2827,420.08045,204.1418,419.74025Q204.0009,419.40005,203.8768,419.05335Q203.7528,418.70664,203.6459,418.35427Q203.539,418.0019,203.4495,417.6447Q203.3601,417.28751,203.2882,416.92635Q203.2164,416.5652,203.1624,416.20096Q203.10829999999999,415.83671,203.0722,415.47026Q203.0361,415.1038,203.0181,414.736015Q203,414.368229,203,414Q203,413.631771,203.0181,413.263985Q203.0361,412.8962,203.0722,412.52974Q203.10829999999999,412.16329,203.1624,411.79904Q203.2164,411.4348,203.2882,411.07365Q203.3601,410.71249,203.4495,410.3553Q203.539,409.9981,203.6459,409.64573Q203.7528,409.29336,203.8768,408.94665Q204.0009,408.59995,204.1418,408.25975Q204.2827,407.91955,204.4402,407.58667Q204.5976,407.2538,204.7712,406.92905Q204.9448,406.6043,205.1341,406.28846Q205.3234,405.97262,205.528,405.66645Q205.7325,405.36028,205.9519,405.06451Q206.1712,404.76875,206.4048,404.4841Q206.6384,404.19946,206.88569999999999,403.9266Q207.133,403.6538,207.39339999999999,403.3934Q207.6538,403.133,207.9266,402.8857Q208.19946,402.6384,208.4841,402.4048Q208.76875,402.1712,209.06451,401.9519Q209.36028,401.7325,209.66645,401.528Q209.97262,401.3234,210.28846,401.1341Q210.6043,400.9448,210.92905,400.7712Q211.2538,400.5976,211.58667,400.4402Q211.91955,400.2827,212.25975,400.1418Q212.59995,400.0009,212.94665,399.8768Q213.29336,399.7528,213.64573000000001,399.6459Q213.9981,399.539,214.3553,399.4495Q214.71249,399.3601,215.07365,399.2882Q215.4348,399.2164,215.79904,399.1624Q216.16329,399.1083,216.52974,399.0722Q216.8962,399.0361,217.263985,399.0181Q217.631771,399,218,399Z" fill-rule="evenodd" fill="#000000" fill-opacity="1" style="mix-blend-mode:passthrough"/></g></g></g></svg>